<svg xmlns="http://www.w3.org/2000/svg" xmlns:xlink="http://www.w3.org/1999/xlink" width="2000" zoomAndPan="magnify" viewBox="0 0 1500 1499.999933" height="2000" preserveAspectRatio="xMidYMid meet" version="1.0"><defs><clipPath id="59945787a0"><path d="M 391 601 L 598 601 L 598 893 L 391 893 Z M 391 601 " clip-rule="nonzero"/></clipPath><clipPath id="69a319a2a4"><path d="M 390.027344 611.566406 L 540.542969 582.097656 L 599.476562 883.128906 L 448.960938 912.597656 Z M 390.027344 611.566406 " clip-rule="nonzero"/></clipPath><clipPath id="72619f2540"><path d="M 435.183594 602.726562 C 493.238281 591.359375 559.066406 676.707031 581.796875 792.820312 L 597.605469 873.5625 C 598.640625 878.847656 595.195312 883.96875 589.910156 885.003906 L 554.324219 891.96875 C 496.265625 903.335938 430.441406 817.988281 407.707031 701.875 L 391.902344 621.132812 C 390.867188 615.847656 394.3125 610.726562 399.59375 609.691406 Z M 435.183594 602.726562 " clip-rule="nonzero"/></clipPath><clipPath id="ac1fb41589"><path d="M 0 0 L 207 0 L 207 292 L 0 292 Z M 0 0 " clip-rule="nonzero"/></clipPath><clipPath id="43910b7a80"><path d="M -0.972656 10.566406 L 149.542969 -18.902344 L 208.476562 282.128906 L 57.960938 311.597656 Z M -0.972656 10.566406 " clip-rule="nonzero"/></clipPath><clipPath id="6fecae0da1"><path d="M 44.183594 1.726562 C 102.238281 -9.640625 168.066406 75.707031 190.796875 191.820312 L 206.605469 272.5625 C 207.640625 277.847656 204.195312 282.96875 198.910156 284.003906 L 163.324219 290.96875 C 105.265625 302.335938 39.441406 216.988281 16.707031 100.875 L 0.902344 20.132812 C -0.132812 14.847656 3.3125 9.726562 8.59375 8.691406 Z M 44.183594 1.726562 " clip-rule="nonzero"/></clipPath><clipPath id="98cf3e45f7"><rect x="0" width="207" y="0" height="292"/></clipPath><clipPath id="debf7fa045"><path d="M 760 804 L 1097 804 L 1097 1023 L 760 1023 Z M 760 804 " clip-rule="nonzero"/></clipPath><clipPath id="4f25c41258"><path d="M 1088.59375 803 L 1112.8125 975.097656 L 768.621094 1023.535156 L 744.402344 851.4375 Z M 1088.59375 803 " clip-rule="nonzero"/></clipPath><clipPath id="168cde4353"><path d="M 1095.859375 854.628906 C 1105.203125 921.007812 1004.640625 990.320312 871.878906 1009.003906 L 778.277344 1022.175781 C 772.945312 1022.925781 768.011719 1019.210938 767.261719 1013.878906 L 761.355469 971.90625 C 752.015625 905.527344 852.578125 836.214844 985.335938 817.53125 L 1078.941406 804.359375 C 1084.273438 803.609375 1089.203125 807.324219 1089.953125 812.65625 Z M 1095.859375 854.628906 " clip-rule="nonzero"/></clipPath><clipPath id="b8dc3e3790"><path d="M 0 0 L 337 0 L 337 219 L 0 219 Z M 0 0 " clip-rule="nonzero"/></clipPath><clipPath id="bb604887ea"><path d="M 328.59375 -1 L 352.8125 171.097656 L 8.621094 219.535156 L -15.597656 47.4375 Z M 328.59375 -1 " clip-rule="nonzero"/></clipPath><clipPath id="cee1ff92ab"><path d="M 335.859375 50.628906 C 345.203125 117.007812 244.640625 186.320312 111.878906 205.003906 L 18.277344 218.175781 C 12.945312 218.925781 8.011719 215.210938 7.261719 209.878906 L 1.355469 167.90625 C -7.984375 101.527344 92.578125 32.214844 225.335938 13.53125 L 318.941406 0.359375 C 324.273438 -0.390625 329.203125 3.324219 329.953125 8.65625 Z M 335.859375 50.628906 " clip-rule="nonzero"/></clipPath><clipPath id="de9fcb7299"><rect x="0" width="337" y="0" height="219"/></clipPath><clipPath id="fdfce7d8c4"><path d="M 638 286 L 789 286 L 789 474 L 638 474 Z M 638 286 " clip-rule="nonzero"/></clipPath><clipPath id="b5a28904fc"><path d="M 823.808594 450.039062 L 680.355469 497.800781 L 619.34375 314.5625 L 762.796875 266.796875 Z M 823.808594 450.039062 " clip-rule="nonzero"/></clipPath><clipPath id="e4f413419a"><path d="M 641.546875 381.25 C 628.9375 343.371094 651.570312 304.207031 691.183594 291.015625 C 730.796875 277.828125 772.390625 295.605469 785.003906 333.488281 C 801.269531 382.34375 752.082031 473.921875 752.082031 473.921875 C 752.082031 473.921875 657.816406 430.105469 641.546875 381.25 Z M 641.546875 381.25 " clip-rule="nonzero"/></clipPath><clipPath id="cec95d2068"><path d="M 0 0 L 151 0 L 151 188 L 0 188 Z M 0 0 " clip-rule="nonzero"/></clipPath><clipPath id="2f50e359a8"><path d="M 185.808594 164.039062 L 42.355469 211.800781 L -18.65625 28.5625 L 124.796875 -19.203125 Z M 185.808594 164.039062 " clip-rule="nonzero"/></clipPath><clipPath id="0d0c984a30"><path d="M 3.546875 95.25 C -9.0625 57.371094 13.570312 18.207031 53.183594 5.015625 C 92.796875 -8.171875 134.390625 9.605469 147.003906 47.488281 C 163.269531 96.34375 114.082031 187.921875 114.082031 187.921875 C 114.082031 187.921875 19.816406 144.105469 3.546875 95.25 Z M 3.546875 95.25 " clip-rule="nonzero"/></clipPath><clipPath id="eb6908a8f6"><rect x="0" width="151" y="0" height="188"/></clipPath><clipPath id="657bee4c8a"><path d="M 504 411 L 682 411 L 682 563 L 504 563 Z M 504 411 " clip-rule="nonzero"/></clipPath><clipPath id="08b522b4ff"><path d="M 720.863281 485.144531 L 642.625 614.523438 L 477.363281 514.589844 L 555.601562 385.207031 Z M 720.863281 485.144531 " clip-rule="nonzero"/></clipPath><clipPath id="741efdaa58"><path d="M 537.511719 550.960938 C 503.347656 530.300781 495.179688 485.808594 516.785156 450.082031 C 538.390625 414.355469 581.582031 400.921875 615.75 421.578125 C 659.808594 448.226562 681.746094 549.835938 681.746094 549.835938 C 681.746094 549.835938 581.570312 577.605469 537.511719 550.960938 Z M 537.511719 550.960938 " clip-rule="nonzero"/></clipPath><clipPath id="b9a1bb0e51"><path d="M 0 0 L 177.839844 0 L 177.839844 152 L 0 152 Z M 0 0 " clip-rule="nonzero"/></clipPath><clipPath id="81cc58770d"><path d="M 216.863281 74.144531 L 138.625 203.523438 L -26.636719 103.589844 L 51.601562 -25.792969 Z M 216.863281 74.144531 " clip-rule="nonzero"/></clipPath><clipPath id="07e8db0bbf"><path d="M 33.511719 139.960938 C -0.652344 119.300781 -8.820312 74.808594 12.785156 39.082031 C 34.390625 3.355469 77.582031 -10.078125 111.75 10.578125 C 155.808594 37.226562 177.746094 138.835938 177.746094 138.835938 C 177.746094 138.835938 77.570312 166.605469 33.511719 139.960938 Z M 33.511719 139.960938 " clip-rule="nonzero"/></clipPath><clipPath id="1b15c6999a"><rect x="0" width="178" y="0" height="152"/></clipPath><clipPath id="a4793fa63b"><path d="M 830 220 L 981 220 L 981 398 L 830 398 Z M 830 220 " clip-rule="nonzero"/></clipPath><clipPath id="1d45c4234b"><path d="M 907.449219 436.226562 L 778.074219 357.980469 L 878.019531 192.722656 L 1007.394531 270.96875 Z M 907.449219 436.226562 " clip-rule="nonzero"/></clipPath><clipPath id="6656b9c3d3"><path d="M 841.644531 252.867188 C 862.304688 218.703125 906.796875 210.542969 942.523438 232.148438 C 978.25 253.753906 991.679688 296.949219 971.019531 331.113281 C 944.371094 375.171875 842.761719 397.101562 842.761719 397.101562 C 842.761719 397.101562 814.996094 296.925781 841.644531 252.867188 Z M 841.644531 252.867188 " clip-rule="nonzero"/></clipPath><clipPath id="1bd4f6135d"><path d="M 0 0 L 151 0 L 151 177.199219 L 0 177.199219 Z M 0 0 " clip-rule="nonzero"/></clipPath><clipPath id="cbd0de3d4c"><path d="M 77.449219 216.226562 L -51.925781 137.980469 L 48.019531 -27.277344 L 177.394531 50.96875 Z M 77.449219 216.226562 " clip-rule="nonzero"/></clipPath><clipPath id="d9cf6d7d0d"><path d="M 11.644531 32.867188 C 32.304688 -1.296875 76.796875 -9.457031 112.523438 12.148438 C 148.25 33.753906 161.679688 76.949219 141.019531 111.113281 C 114.371094 155.171875 12.761719 177.101562 12.761719 177.101562 C 12.761719 177.101562 -15.003906 76.925781 11.644531 32.867188 Z M 11.644531 32.867188 " clip-rule="nonzero"/></clipPath><clipPath id="3a7a98d66e"><rect x="0" width="151" y="0" height="178"/></clipPath><clipPath id="285216bb5e"><path d="M 831 404 L 1020 404 L 1020 555 L 831 555 Z M 831 404 " clip-rule="nonzero"/></clipPath><clipPath id="3c541874d0"><path d="M 854.332031 588.289062 L 809.644531 443.847656 L 994.144531 386.765625 L 1038.832031 531.207031 Z M 854.332031 588.289062 " clip-rule="nonzero"/></clipPath><clipPath id="a8a2236f92"><path d="M 926.996094 407.539062 C 965.140625 395.738281 1003.8125 419.207031 1016.152344 459.09375 C 1028.492188 498.976562 1009.824219 540.183594 971.683594 551.980469 C 922.492188 567.199219 831.988281 516.066406 831.988281 516.066406 C 831.988281 516.066406 877.804688 422.757812 926.996094 407.539062 Z M 926.996094 407.539062 " clip-rule="nonzero"/></clipPath><clipPath id="9bd295d3de"><path d="M 0.839844 0 L 189 0 L 189 151 L 0.839844 151 Z M 0.839844 0 " clip-rule="nonzero"/></clipPath><clipPath id="386b8555fc"><path d="M 23.332031 184.289062 L -21.355469 39.847656 L 163.144531 -17.234375 L 207.832031 127.207031 Z M 23.332031 184.289062 " clip-rule="nonzero"/></clipPath><clipPath id="73cb8caff8"><path d="M 95.996094 3.539062 C 134.140625 -8.261719 172.8125 15.207031 185.152344 55.09375 C 197.492188 94.976562 178.824219 136.183594 140.683594 147.980469 C 91.492188 163.199219 0.988281 112.066406 0.988281 112.066406 C 0.988281 112.066406 46.804688 18.757812 95.996094 3.539062 Z M 95.996094 3.539062 " clip-rule="nonzero"/></clipPath><clipPath id="eb55466b3b"><rect x="0" width="189" y="0" height="151"/></clipPath><clipPath id="a69ba14759"><path d="M 790 586 L 972 586 L 972 737 L 790 737 Z M 790 586 " clip-rule="nonzero"/></clipPath><clipPath id="f673b1c287"><path d="M 756.40625 675.019531 L 823.902344 539.726562 L 996.722656 625.941406 L 929.222656 761.238281 Z M 756.40625 675.019531 " clip-rule="nonzero"/></clipPath><clipPath id="d6f2c7f576"><path d="M 933.824219 594.5625 C 969.550781 612.386719 981.292969 656.070312 962.65625 693.429688 C 944.015625 730.792969 902.054688 747.679688 866.328125 729.859375 C 820.25 706.871094 790.15625 607.371094 790.15625 607.371094 C 790.15625 607.371094 887.75 571.578125 933.824219 594.5625 Z M 933.824219 594.5625 " clip-rule="nonzero"/></clipPath><clipPath id="ac25a9214e"><path d="M 0.078125 0 L 182 0 L 182 151 L 0.078125 151 Z M 0.078125 0 " clip-rule="nonzero"/></clipPath><clipPath id="6a1931f9ff"><path d="M -33.59375 89.019531 L 33.902344 -46.273438 L 206.722656 39.941406 L 139.222656 175.238281 Z M -33.59375 89.019531 " clip-rule="nonzero"/></clipPath><clipPath id="8196d27682"><path d="M 143.824219 8.5625 C 179.550781 26.386719 191.292969 70.070312 172.65625 107.429688 C 154.015625 144.792969 112.054688 161.679688 76.328125 143.859375 C 30.25 120.871094 0.15625 21.371094 0.15625 21.371094 C 0.15625 21.371094 97.75 -14.421875 143.824219 8.5625 Z M 143.824219 8.5625 " clip-rule="nonzero"/></clipPath><clipPath id="7bee9813b0"><rect x="0" width="182" y="0" height="151"/></clipPath><clipPath id="49ccf581f8"><path d="M 1260.015625 705.007812 L 1350 705.007812 L 1350 794.992188 L 1260.015625 794.992188 Z M 1260.015625 705.007812 " clip-rule="nonzero"/></clipPath><clipPath id="44a458925c"><path d="M 1305.007812 705.007812 C 1280.160156 705.007812 1260.015625 725.152344 1260.015625 750 C 1260.015625 774.847656 1280.160156 794.992188 1305.007812 794.992188 C 1329.855469 794.992188 1350 774.847656 1350 750 C 1350 725.152344 1329.855469 705.007812 1305.007812 705.007812 Z M 1305.007812 705.007812 " clip-rule="nonzero"/></clipPath><clipPath id="1e0d3af484"><path d="M 0.015625 0.0078125 L 90 0.0078125 L 90 89.992188 L 0.015625 89.992188 Z M 0.015625 0.0078125 " clip-rule="nonzero"/></clipPath><clipPath id="5ecc9cea5d"><path d="M 45.007812 0.0078125 C 20.160156 0.0078125 0.015625 20.152344 0.015625 45 C 0.015625 69.847656 20.160156 89.992188 45.007812 89.992188 C 69.855469 89.992188 90 69.847656 90 45 C 90 20.152344 69.855469 0.0078125 45.007812 0.0078125 Z M 45.007812 0.0078125 " clip-rule="nonzero"/></clipPath><clipPath id="f6b7674b03"><rect x="0" width="90" y="0" height="90"/></clipPath><clipPath id="c933ffaf0d"><path d="M 150 705.007812 L 239.984375 705.007812 L 239.984375 794.992188 L 150 794.992188 Z M 150 705.007812 " clip-rule="nonzero"/></clipPath><clipPath id="37c2407ada"><path d="M 194.992188 705.007812 C 170.144531 705.007812 150 725.152344 150 750 C 150 774.847656 170.144531 794.992188 194.992188 794.992188 C 219.839844 794.992188 239.984375 774.847656 239.984375 750 C 239.984375 725.152344 219.839844 705.007812 194.992188 705.007812 Z M 194.992188 705.007812 " clip-rule="nonzero"/></clipPath><clipPath id="2d4c6e889b"><path d="M 0 0.0078125 L 89.984375 0.0078125 L 89.984375 89.992188 L 0 89.992188 Z M 0 0.0078125 " clip-rule="nonzero"/></clipPath><clipPath id="e819f1c531"><path d="M 44.992188 0.0078125 C 20.144531 0.0078125 0 20.152344 0 45 C 0 69.847656 20.144531 89.992188 44.992188 89.992188 C 69.839844 89.992188 89.984375 69.847656 89.984375 45 C 89.984375 20.152344 69.839844 0.0078125 44.992188 0.0078125 Z M 44.992188 0.0078125 " clip-rule="nonzero"/></clipPath><clipPath id="abfdc22709"><rect x="0" width="90" y="0" height="90"/></clipPath></defs><rect x="-150" width="1800" fill="#ffffff" y="-149.999993" height="1799.99992" fill-opacity="1"/><rect x="-150" width="1800" fill="#101411" y="-149.999993" height="1799.99992" fill-opacity="1"/><path stroke-linecap="round" transform="matrix(0.154412, 0.733932, -0.733932, 0.154412, 745.567289, 570.941307)" fill="none" stroke-linejoin="miter" d="M 19.075769 18.996995 C 370.859582 315.243918 675.207442 315.726823 932.115325 20.43954 " stroke="#67825b" stroke-width="27" stroke-opacity="1" stroke-miterlimit="4"/><g clip-path="url(#59945787a0)"><g clip-path="url(#69a319a2a4)"><g clip-path="url(#72619f2540)"><g transform="matrix(1, 0, 0, 1, 391, 601)"><g clip-path="url(#98cf3e45f7)"><g clip-path="url(#ac1fb41589)"><g clip-path="url(#43910b7a80)"><g clip-path="url(#6fecae0da1)"><path fill="#67825b" d="M -0.972656 10.566406 L 149.542969 -18.902344 L 208.476562 282.128906 L 57.960938 311.597656 Z M -0.972656 10.566406 " fill-opacity="1" fill-rule="nonzero"/></g></g></g></g></g></g></g></g><g clip-path="url(#debf7fa045)"><g clip-path="url(#4f25c41258)"><g clip-path="url(#168cde4353)"><g transform="matrix(1, 0, 0, 1, 760, 804)"><g clip-path="url(#de9fcb7299)"><g clip-path="url(#b8dc3e3790)"><g clip-path="url(#bb604887ea)"><g clip-path="url(#cee1ff92ab)"><path fill="#67825b" d="M 328.59375 -1 L 352.8125 171.097656 L 8.621094 219.535156 L -15.597656 47.4375 Z M 328.59375 -1 " fill-opacity="1" fill-rule="nonzero"/></g></g></g></g></g></g></g></g><path stroke-linecap="round" transform="matrix(-0.157757, 0.733221, -0.733221, -0.157757, 811.983539, 957.757338)" fill="none" stroke-linejoin="miter" d="M 14.646391 14.487019 C 143.664344 55.101352 236.234608 56.211955 292.370268 17.805359 " stroke="#67825b" stroke-width="23" stroke-opacity="1" stroke-miterlimit="4"/><path stroke-linecap="round" transform="matrix(0.518444, 0.541955, -0.541955, 0.518444, 582.357415, 851.870883)" fill="none" stroke-linejoin="miter" d="M 15.750216 23.265677 C 46.382347 6.230633 87.726069 6.93849 139.777617 25.385647 " stroke="#67825b" stroke-width="22" stroke-opacity="1" stroke-miterlimit="4"/><g clip-path="url(#fdfce7d8c4)"><g clip-path="url(#b5a28904fc)"><g clip-path="url(#e4f413419a)"><g transform="matrix(1, 0, 0, 1, 638, 286)"><g clip-path="url(#eb6908a8f6)"><g clip-path="url(#cec95d2068)"><g clip-path="url(#2f50e359a8)"><g clip-path="url(#0d0c984a30)"><path fill="#9d868c" d="M 185.808594 164.039062 L 42.355469 211.800781 L -18.46875 29.121094 L 124.984375 -18.640625 Z M 185.808594 164.039062 " fill-opacity="1" fill-rule="nonzero"/></g></g></g></g></g></g></g></g><g clip-path="url(#657bee4c8a)"><g clip-path="url(#08b522b4ff)"><g clip-path="url(#741efdaa58)"><g transform="matrix(1, 0, 0, 1, 504, 411)"><g clip-path="url(#1b15c6999a)"><g clip-path="url(#b9a1bb0e51)"><g clip-path="url(#81cc58770d)"><g clip-path="url(#07e8db0bbf)"><path fill="#9d868c" d="M 216.863281 74.144531 L 138.625 203.523438 L -26.132812 103.894531 L 52.105469 -25.484375 Z M 216.863281 74.144531 " fill-opacity="1" fill-rule="nonzero"/></g></g></g></g></g></g></g></g><g clip-path="url(#a4793fa63b)"><g clip-path="url(#1d45c4234b)"><g clip-path="url(#6656b9c3d3)"><g transform="matrix(1, 0, 0, 1, 830, 220)"><g clip-path="url(#3a7a98d66e)"><g clip-path="url(#1bd4f6135d)"><g clip-path="url(#cbd0de3d4c)"><g clip-path="url(#d9cf6d7d0d)"><path fill="#9d868c" d="M 77.449219 216.226562 L -51.925781 137.980469 L 47.714844 -26.773438 L 177.089844 51.472656 Z M 77.449219 216.226562 " fill-opacity="1" fill-rule="nonzero"/></g></g></g></g></g></g></g></g><g clip-path="url(#285216bb5e)"><g clip-path="url(#3c541874d0)"><g clip-path="url(#a8a2236f92)"><g transform="matrix(1, 0, 0, 1, 831, 404)"><g clip-path="url(#eb55466b3b)"><g clip-path="url(#9bd295d3de)"><g clip-path="url(#386b8555fc)"><g clip-path="url(#73cb8caff8)"><path fill="#9d868c" d="M 23.332031 184.289062 L -21.355469 39.847656 L 162.582031 -17.058594 L 207.269531 127.382812 Z M 23.332031 184.289062 " fill-opacity="1" fill-rule="nonzero"/></g></g></g></g></g></g></g></g><g clip-path="url(#a69ba14759)"><g clip-path="url(#f673b1c287)"><g clip-path="url(#d6f2c7f576)"><g transform="matrix(1, 0, 0, 1, 790, 586)"><g clip-path="url(#7bee9813b0)"><g clip-path="url(#ac25a9214e)"><g clip-path="url(#6a1931f9ff)"><g clip-path="url(#8196d27682)"><path fill="#9d868c" d="M -33.59375 89.019531 L 33.902344 -46.273438 L 206.191406 39.679688 L 138.695312 174.972656 Z M -33.59375 89.019531 " fill-opacity="1" fill-rule="nonzero"/></g></g></g></g></g></g></g></g><g clip-path="url(#49ccf581f8)"><g clip-path="url(#44a458925c)"><g transform="matrix(1, 0, 0, 1, 1260, 705)"><g clip-path="url(#f6b7674b03)"><g clip-path="url(#1e0d3af484)"><g clip-path="url(#5ecc9cea5d)"><path fill="#916f54" d="M 0.015625 0.0078125 L 90 0.0078125 L 90 89.992188 L 0.015625 89.992188 Z M 0.015625 0.0078125 " fill-opacity="1" fill-rule="nonzero"/></g></g></g></g></g></g><g clip-path="url(#c933ffaf0d)"><g clip-path="url(#37c2407ada)"><g transform="matrix(1, 0, 0, 1, 150, 705)"><g clip-path="url(#abfdc22709)"><g clip-path="url(#2d4c6e889b)"><g clip-path="url(#e819f1c531)"><path fill="#916f54" d="M 0 0.0078125 L 89.984375 0.0078125 L 89.984375 89.992188 L 0 89.992188 Z M 0 0.0078125 " fill-opacity="1" fill-rule="nonzero"/></g></g></g></g></g></g></svg>